<?xml version="1.0" encoding="UTF-8" standalone="no"?>
<!-- Created with Inkscape (http://www.inkscape.org/) -->

<svg
   width="137.05588mm"
   height="157.94069mm"
   viewBox="0 0 137.05588 157.94069"
   version="1.1"
   id="svg1"
   xml:space="preserve"
   xmlns="http://www.w3.org/2000/svg"
   xmlns:svg="http://www.w3.org/2000/svg"><defs
     id="defs1" /><g
     id="layer2"
     transform="translate(-37.2324,-69.979018)"
     style="display:inline"><path
       style="fill:#000000"
       d="m -96.900931,135.45727 c -1.600729,-0.9475 -16.870879,-9.78356 -33.933669,-19.6357 l -31.02324,-17.912974 0.067,-39.797533 0.067,-39.797532 25.4,-14.6638936 c 13.97,-8.0651412 29.21,-16.8722924 33.86667,-19.5714474 4.656666,-2.699154 8.718122,-4.910075 9.025457,-4.913156 0.525991,-0.0053 67.174246,38.278581 68.166731,39.156092 0.437077,0.386445 0.463021,2.623197 0.463021,39.920265 v 39.510882 l -0.992188,0.62061 c -4.480522,2.802547 -67.024145,38.669807 -67.534897,38.729637 -0.43601,0.0511 -1.65343,-0.50969 -3.571875,-1.64525 z m 35.454167,-19.72459 c 17.462501,-10.08419 32.256419,-18.621232 32.875375,-18.971202 l 1.125374,-0.636308 -0.06704,-37.992218 -0.06704,-37.992217 -1.322917,-0.779475 C -29.630617,18.932549 -44.436866,10.375428 -61.805789,0.3454364 L -93.385648,-17.890913 -116.17766,-4.7328297 c -12.53561,7.2369457 -27.34656,15.7844507 -32.91322,18.9944547 l -10.12121,5.836372 0.067,38.083577 0.067,38.083577 32.80834,18.959289 c 18.04458,10.4276 32.867864,18.93315 32.940624,18.90121 0.07276,-0.0319 14.419792,-8.30877 31.882292,-18.39297 z"
       id="path10"
       transform="translate(199.09024,90.813985)" /><path
       style="fill:#ffffff"
       d="m -159.07802,96.265151 -0.134,-76.167154 65.826372,-37.98891 65.805552,38.031648 0.13408,75.964361 -66.015331,38.091384 z"
       id="path9"
       transform="translate(199.09024,90.813985)" /></g><g
     id="g2"
     style="display:none"
     transform="translate(-37.2324,-69.979018)"><g
       id="g1"
       style="display:inline"><path
         id="path9-2"
         style="display:inline;fill:#000000;stroke:none;stroke-width:0.264402;stroke-opacity:1"
         d="m 101.46123,164.70199 c -2.149918,-9e-5 -3.892771,1.57991 -3.892574,3.52885 6.8e-5,1.94876 1.742843,3.52849 3.892574,3.5284 2.14973,9e-5 3.8925,-1.57964 3.89257,-3.5284 2e-4,-1.94894 -1.74265,-3.52894 -3.89257,-3.52885 z m 3.88846,-5.51992 c 0,1.94875 -1.74268,3.52852 -3.89239,3.52852 -2.149706,0 -3.892386,-1.57977 -3.892383,-3.52852 3e-6,-1.94875 1.742681,-3.52851 3.892383,-3.52851 2.1497,0 3.89239,1.57976 3.89239,3.52851 z"
         transform="matrix(0.94655052,0,0,1.0888866,6.332615,-7.5787532)" /><path
         id="rect11"
         style="opacity:1;fill:#000000;stroke:none;stroke-width:0.259698;stroke-opacity:1"
         d="m 120.91875,159.53589 -12.70231,4.36643 v 6.07045 l 12.70231,-4.36644 z m 0,9.63271 -12.70231,4.36643 v 6.07045 l 12.70231,-4.36644 z" /><path
         id="rect11-2-5"
         style="display:inline;fill:#000000;stroke:none;stroke-width:0.259698;stroke-opacity:1"
         d="m 107.0888,116.50826 -52.80261,18.50249 52.81159,18.40982 52.80261,-18.50309 z m -52.80261,18.93357 v 6.07105 l 52.81159,18.40922 v -6.07044 z m 105.98191,0 -52.81159,18.40983 v 6.07044 l 52.81159,-18.40922 z" /><path
         id="rect11-2-7"
         style="display:inline;opacity:1;fill:#000000;fill-opacity:1;stroke:none;stroke-width:0.259698;stroke-opacity:1"
         d="m 54.708305,143.35798 v 26.88681 l 10.937317,3.7506 v -6.00169 l -5.504831,-2.03285 0.04543,-15.53633 5.459391,1.8469 v -5.16284 z m 105.398355,0 -10.93732,3.7506 v 5.16284 l 5.46,-1.8469 0.0455,15.53633 -5.50543,2.03285 v 6.00169 l 10.93732,-3.7506 z" /></g></g><g
     id="layer1"
     transform="translate(-37.2324,-69.979018)"
     style="display:none"><path
       d="m 87.442811,109.39024 c -1.225211,0.2148 -2.217962,0.69932 -3.704331,0.48885 0,0 -1.2395,-0.10232 -1.861244,-0.0365 -0.714883,0.11864 -0.886947,0.50767 -1.066772,0.57986 -1.176081,0.47215 -1.134317,1.27592 -1.578288,1.27912 -1.007578,0.0151 -3.495838,2.31707 -4.346935,3.69129 -0.33045,0.53359 -0.598099,0.97709 -0.365352,0.95498 0.10919,-0.0104 0.261203,-0.31157 0.538892,-0.7509 0.261289,-0.41336 0.89289,-1.2093 1.198053,-1.55579 0.966479,-1.09741 2.441753,-1.91482 2.777371,-1.76954 0.08277,0.0358 -0.0722,0.40097 -0.07958,0.56844 -0.01747,0.39627 0.173191,0.45088 -0.188619,0.83923 -0.80524,0.86433 -2.8991,3.8168 -2.681869,4.22248 0.07244,0.13527 0.41837,-0.84991 1.335605,-2.07387 0.654189,-0.87294 1.563745,-2.03571 1.69508,-1.81116 0.162867,0.27846 0.116815,0.21681 0.238179,0.49407 0.06143,0.14035 0.273999,0.18994 0.193929,0.38034 -0.147272,0.35021 -0.634247,0.91764 -0.963958,1.69099 -0.324108,0.76021 -0.590197,1.60683 -0.697115,2.4288 -0.10692,0.82198 -0.123796,2.12441 0.03486,2.11441 0.158656,-0.01 -0.04197,-0.51402 0.181384,-1.86139 0.223358,-1.34738 0.685007,-2.4111 1.047998,-3.06958 0.362991,-0.65848 0.588875,-1.05322 0.639755,-0.93638 0.05088,0.11684 0.639754,0.40101 0.639754,0.40101 0.157797,0.923 0.442407,2.01034 1.259575,2.15359 0.619238,0.10854 1.305454,1.31767 1.630296,2.76688 0.324847,1.44921 0.407133,3.48837 0.08245,5.05647 -0.262633,1.26841 -0.68414,3.41826 -0.820515,4.91673 -0.153789,1.68982 -0.442678,2.8862 -0.76016,3.14968 -0.888511,0.7374 -1.35519,2.92567 -1.228349,4.4111 0.272827,3.19546 0.315104,6.07119 -0.153844,6.90589 -0.240311,0.42774 -0.55478,0.54117 -1.222631,0.5414 -1.264128,4.4e-4 -3.302512,-0.45387 -5.045034,-0.29536 -0.589675,0.0958 -0.582828,0.53067 -1.091171,0.59646 -1.154677,0.14946 -1.017263,0.6762 -1.457793,0.8245 -1.713102,0.57672 -2.027151,2.08384 -1.892486,3.05362 0.571547,0.55858 2.318793,0.22834 2.913181,0.20937 2.896268,-0.0925 8.1513,0.0368 8.860449,0.13916 2.671463,-0.37076 3.055709,-1.09641 3.949576,-1.53936 0.868711,-0.38264 0.964168,-0.78756 3.202759,0.29712 0.490376,0.23761 0.563885,1.54206 1.195979,2.11035 3.062058,1.65825 3.987208,1.79407 7.684928,3.3802 0.95992,0.41176 2.794942,1.1738 4.449902,1.99826 0.95011,0.47332 2.801,1.34597 3.47022,0.91162 0.442,-0.28689 -0.35494,-1.25304 -0.71972,-1.58417 -0.17465,-0.15853 0.44324,0.0441 0.80679,-0.0568 0.27825,-0.0772 0.35891,-0.53972 0.11247,-0.97916 -0.18746,-0.33425 -0.9499,-1.30778 -2.11142,-1.89523 -0.18481,-0.0935 1.16983,0.12674 0.30947,-1.38739 -0.0806,-0.14185 0.83435,-0.0282 0.7289,0.20877 -0.20994,0.47175 0.24684,0.88688 0.49725,1.01625 0.34188,0.17662 0.79758,0.44322 1.12302,0.51347 0.49398,0.10664 -0.21746,0.48241 0.91098,0.9225 0.52915,0.20637 1.0145,-0.19853 1.19621,0.18566 0.17176,0.36314 0.40859,0.77065 1.2615,0.80885 0.52853,0.0237 0.84057,-0.22439 0.78002,0.14513 -0.13693,0.83566 2.15228,0.69959 2.5499,0.43519 1.68427,-1.11997 2.78256,-2.40178 5.04872,-2.11334 1.07239,0.1365 1.7887,-0.006 3.19273,-0.63464 0.61986,-0.27755 2.1339,-1.2866 2.94988,-2.38333 0.24703,-0.33203 0.21949,-1.78149 0.21109,-2.32148 -0.0213,-1.37025 -0.95816,-2.39509 -1.35734,-4.04289 -0.2821,-1.16448 -1.12336,-2.26283 -1.91716,-3.40704 -0.77212,-1.11294 -1.8169,-2.77004 -1.8169,-2.77004 -0.85643,-1.27965 -1.88932,-1.86829 -3.12466,-2.73406 -0.65395,-0.4583 -1.1314,-1.1378 -2.18041,-1.72413 -0.66219,-0.37012 -1.73396,-0.86578 -3.22573,-0.95698 -3.68407,-0.22523 -3.87346,-1.01863 -5.11962,-2.65066 -0.49125,-0.64337 -2.2041,-2.76776 -4.19684,-4.71351 -3.420282,-3.33961 -3.413902,-4.40534 -4.827832,-8.94114 -0.3282,-1.05285 -0.88241,-2.57509 -2.0065,-3.49274 -1.71556,-1.4005 -2.19417,-3.04654 -4.831661,-3.27829 0,0 -1.032054,-0.24007 -2.257266,-0.0253 z m 1.705642,0.97917 c -0.401167,-0.0908 -0.930295,0.0187 -1.442289,0.36174 -0.452501,0.30317 -0.286722,0.45551 0.447001,0.98598 0.992733,0.71774 1.669666,0.62733 1.669666,-0.50694 0,-0.45887 -0.27321,-0.75002 -0.674378,-0.84078 z m -4.834847,1.07797 c -0.166644,0.006 -0.120563,0.12164 0.116272,0.21084 0.282678,0.10646 0.891292,0.0889 1.803644,0.35362 1.03457,0.30014 2.095602,1.0019 3.01377,1.66295 1.182299,0.85122 2.461686,2.13796 2.899056,3.14503 0.51817,1.19403 0.49595,1.02445 0.54815,0.88971 0.0507,-0.13069 0.0953,-0.27961 -0.38396,-1.25057 -1.050131,-2.12765 -5.500689,-5.09853 -7.996932,-5.01158 z m 0.454753,1.10691 c -0.238341,0.0884 0.300068,0.17557 1.182357,0.56327 1.472593,0.64711 3.378369,2.56601 4.526339,4.12024 0.519309,0.70309 0.352332,1.43805 0.769978,1.20709 0.563295,-0.3115 -0.164928,-0.88757 -0.826852,-1.74508 -1.01753,-1.31818 -2.743423,-2.93357 -3.866351,-3.5647 -0.790817,-0.44446 -1.547129,-0.6692 -1.785471,-0.58082 z"
       style="display:inline;opacity:1;fill:#f5d501;fill-opacity:1"
       id="path1-4"
       transform="matrix(1.157,0,0,1.157,-7.202982,-35.371188)" /><path
       d="m 96.670565,94.656624 c -1.225211,0.2148 -2.217962,0.699324 -3.704331,0.488855 0,0 -1.2344,-0.125193 -1.786466,-0.07386 -1.010762,0.09398 -0.956747,0.558968 -1.14155,0.617249 -1.368155,0.431471 -1.134317,1.275917 -1.578288,1.279117 -1.007578,0.01514 -3.495838,2.317069 -4.346935,3.691285 -0.33045,0.53359 -0.598099,0.97709 -0.365352,0.95498 0.10919,-0.0104 0.261203,-0.31157 0.538892,-0.7509 0.261289,-0.41335 0.89289,-1.209286 1.198053,-1.555786 0.966479,-1.097404 2.441753,-1.914822 2.777371,-1.769539 0.08277,0.03583 -0.0722,0.400976 -0.07958,0.568441 -0.01747,0.396273 0.173191,0.450876 -0.188619,0.839228 -0.80524,0.86434 -2.8991,3.816796 -2.681869,4.222476 0.07244,0.13527 0.41837,-0.84991 1.335605,-2.07387 0.654189,-0.87294 1.563745,-2.035706 1.69508,-1.811156 0.162867,0.27846 0.116815,0.21681 0.238179,0.49408 0.06143,0.14035 0.273999,0.18994 0.193929,0.380326 -0.147272,0.35022 -0.634247,0.91764 -0.963958,1.69099 -0.324108,0.76021 -0.590197,1.60683 -0.697115,2.4288 -0.10692,0.82198 -0.123796,2.12441 0.03486,2.11441 0.158656,-0.01 -0.04197,-0.51402 0.181384,-1.86139 0.223358,-1.34738 0.685007,-2.4111 1.047998,-3.06958 0.362991,-0.65848 0.588875,-1.05322 0.639755,-0.93638 0.05088,0.11684 0.639754,0.40101 0.639754,0.40101 0.157797,0.923 0.442407,2.01034 1.259575,2.15359 0.619238,0.10854 1.305454,1.31767 1.630296,2.76688 0.324847,1.44921 0.407133,3.48837 0.08245,5.05647 -0.262633,1.26841 -0.68414,3.41826 -0.820515,4.91673 -0.153789,1.68982 -0.442678,2.8862 -0.76016,3.14968 -0.888511,0.7374 -1.35519,2.92567 -1.228349,4.4111 0.272827,3.19546 0.315104,6.07119 -0.153844,6.90589 -0.240311,0.42774 -0.55478,0.54117 -1.222631,0.5414 -1.264128,4.4e-4 -3.302512,-0.45387 -5.045034,-0.29536 -0.589675,0.0958 -0.582828,0.53067 -1.091171,0.59646 -1.154677,0.14946 -1.017263,0.6762 -1.457793,0.8245 -1.713102,0.57672 -2.027151,2.08384 -1.892486,3.05362 0.571547,0.55858 1.047787,0.7903 1.628636,0.66273 3.689664,-0.81029 8.264642,-0.15214 10.258336,0.0636 2.671463,-0.37076 3.206832,-1.32309 4.100699,-1.76604 0.868711,-0.38264 0.699703,-0.93868 2.938294,0.146 0.490376,0.23761 0.563885,1.54206 1.195979,2.11035 3.062056,1.65825 3.987206,1.79407 7.684926,3.3802 0.95992,0.41176 2.79494,1.1738 4.4499,1.99826 0.95011,0.47332 2.801,1.34597 3.47022,0.91162 0.442,-0.28689 -0.35494,-1.25304 -0.71972,-1.58417 -0.17465,-0.15853 0.44324,0.0441 0.80679,-0.0568 0.27825,-0.0772 0.35891,-0.53972 0.11247,-0.97916 -0.18746,-0.33425 -0.9499,-1.30778 -2.11142,-1.89523 -0.18481,-0.0935 1.16983,0.12674 0.30947,-1.38739 -0.0806,-0.14185 0.83435,-0.0282 0.7289,0.20877 -0.20994,0.47175 0.24684,0.88688 0.49725,1.01625 0.34188,0.17662 0.79758,0.44322 1.12302,0.51347 0.49398,0.10664 -0.21746,0.48241 0.91098,0.9225 0.52915,0.20637 1.0145,-0.19853 1.19621,0.18566 0.17176,0.36314 0.40859,0.77065 1.2615,0.80885 0.52853,0.0237 0.84057,-0.22439 0.78002,0.14513 -0.13693,0.83566 2.15228,0.69959 2.5499,0.43519 1.68427,-1.11997 2.78256,-2.40178 5.04872,-2.11334 1.07239,0.1365 1.7887,-0.006 3.19273,-0.63464 0.61986,-0.27755 2.1339,-1.2866 2.94988,-2.38333 0.24703,-0.33203 0.21949,-1.78149 0.21109,-2.32148 -0.0213,-1.37025 -0.65397,-2.52545 -1.05315,-4.17325 -0.2821,-1.16448 -1.12336,-2.26283 -1.91716,-3.40704 -0.77212,-1.11294 -1.94727,-2.72659 -1.94727,-2.72659 -0.88815,-1.32704 -1.95409,-1.98829 -3.27658,-2.8929 -0.62785,-0.42947 -1.05286,-1.01998 -2.02849,-1.56529 -0.66219,-0.37012 -1.90778,-0.77887 -3.39955,-0.87007 -3.68407,-0.22523 -3.87346,-1.01863 -5.11962,-2.65066 -0.49125,-0.64337 -2.2041,-2.76776 -4.19684,-4.71351 -3.42028,-3.33961 -3.4139,-4.40534 -4.82783,-8.94114 -0.3282,-1.05285 -0.88241,-2.575085 -2.0065,-3.492732 -1.71556,-1.400498 -2.19417,-3.046546 -4.831659,-3.278292 0,0 -1.032054,-0.240073 -2.257266,-0.02527 z m 1.312342,9.571146 c 0.788293,1.28795 0.873014,1.73603 0.997306,1.77663 0.995672,0.32556 -4.084798,-7.617039 -5.966991,-7.729011 -0.01566,0.162562 -0.01299,0.04969 1.068784,0.937964 1.081776,0.888277 2.655948,2.980327 3.900901,5.014417 z M 93.85245,99.840136 c -0.299516,-0.3889 -0.578946,-0.68467 -0.784449,-0.70281 -0.0096,0.1474 -0.02443,0.17232 0.152876,0.28244 0.10221,0.0657 0.220469,0.22579 0.335897,0.37983 -0.188746,-0.0262 -0.235279,-0.0114 -0.466035,-0.0551 -0.490771,-0.09286 -0.966901,-0.11175 -1.276377,-0.474385 -0.520836,-0.610304 -0.629911,-1.712102 0.01806,-2.261896 0.39727,-0.33708 0.512332,-0.654405 0.383439,-0.644405 -0.153913,0.0119 -0.36449,0.407549 -0.773596,0.439249 -0.46425,0.03597 -1.266789,-0.465996 -1.066725,-0.904294 0.482621,-1.057321 1.059514,-0.602591 3.5511,-0.314826 1.13914,0.131565 1.653787,-0.174971 2.507914,-0.34341 1.481244,-0.292109 2.70974,-0.09418 3.471772,0.184181 0.952114,0.347794 1.772934,1.636486 2.538744,2.227114 1.24604,0.960989 1.75032,1.481482 2.31557,3.121456 0.36721,1.10735 0.5018,2.83861 1.18298,4.40064 0.86975,1.99443 3.72421,4.99339 5.27627,6.60929 1.81407,1.88868 2.73525,2.95889 2.95443,4.21718 0.0791,0.45433 0.31216,1.3827 0.31906,1.93316 0,0 -0.0118,1.04603 -0.1152,1.81646 -0.10338,0.77043 0.25868,0.37929 0.2893,0.12417 0.0306,-0.25512 0.22646,-0.96672 0.22656,-1.49699 1.6e-4,-0.67718 -0.0288,-1.15815 0.41925,-1.2972 0.23791,-0.0738 0.87311,0.52524 1.32075,0.75673 0.59049,0.30534 1.4877,0.37633 2.41897,0.38058 0.91227,0.004 2.26622,0.15956 3.37682,0.70855 0.97563,0.48228 1.74457,1.35147 2.1203,1.54915 1.28929,0.67832 3.23684,2.26294 4.03028,3.75622 0.24865,0.46796 1.01761,1.89735 1.60157,2.6058 2.11314,2.56361 3.31776,8.06323 2.5865,8.76815 -0.91562,0.88264 -1.64688,1.23397 -2.60209,1.92177 -0.87344,0.62892 -1.55212,0.97842 -2.93056,0.62206 -1.1076,-0.28633 -1.79212,0.0662 -1.9692,0.20876 -0.40349,0.32491 -2.26682,1.18754 -3.18548,1.9177 -0.75301,0.5985 -1.57539,0.13864 -1.80812,0.13864 -0.603,0 -0.0804,-0.58223 0.738,-1.13245 1.26333,-0.84933 0.43082,-1.12366 -0.90486,-0.29817 -2.05546,1.27034 -2.45295,0.56479 -0.42271,-0.75035 0.6767,-0.43835 1.0899,-0.78396 1.0919,-1.18798 0.002,-0.40488 -1.53055,0.46328 -2.64247,1.25263 -1.64465,1.16754 -2.25499,0.36138 -1.88666,-0.23459 0.11981,-0.19386 1.20918,-0.66101 2.21648,-1.12741 1.37434,-0.63634 1.41872,-0.6759 0.97473,-0.8549 -0.32843,-0.1324 -1.13036,0.18727 -2.05074,0.59443 -0.69392,0.30695 -1.56851,0.78116 -2.18466,0.89147 -0.55176,0.0988 -0.84013,-0.12576 -0.84902,-0.33979 -0.0168,-0.40563 0.017,-0.34563 1.04392,-0.82531 0.91747,-0.42856 1.98654,-0.71217 1.99054,-0.93394 0.001,-0.0695 0.20304,-0.24522 -0.45939,-0.12331 -1.02199,0.18808 -2.64741,0.78691 -2.90537,0.62141 -0.25702,-0.16489 -0.25291,-0.76181 0.30225,-0.82779 2.81972,-0.33511 5.06347,-1.57027 6.02205,-1.20843 0.27897,0.10531 0.94591,0.49979 1.63801,0.48712 1.14729,-0.021 1.86141,-0.22407 2.59723,-0.45961 1.49071,-0.63342 2.84093,-0.53458 3.9268,-0.43558 1.16826,0.10651 1.12715,-0.047 0.89904,-0.2312 -0.47708,-0.38522 -1.64874,-0.421 -2.86286,-0.36165 -0.75525,0.0369 -1.59597,0.24696 -2.19674,0.41934 -2.17985,0.62547 -3.64409,-0.0609 -5.38315,0.004 -0.97889,0.0364 -2.32917,0.6908 -3.79738,0.68336 -0.59591,-0.003 -1.53203,-0.22319 -2.09894,-0.21514 -1.04848,0.0149 -1.94852,0.28243 -2.16455,0.38425 -1.10375,0.52027 -2.66892,0.51669 -3.29171,-0.62349 -0.23214,-0.42499 -0.24336,-1.3455 0.13535,-1.93004 0.33343,-0.51466 0.75409,-0.83854 1.18686,-1.52408 1.03731,-1.64319 0.84503,-2.89912 0.84056,-3.89121 -0.002,-0.47115 -0.43993,-0.0884 -0.36516,0.3958 0.29459,1.90771 -0.54678,2.15158 -1.63718,3.3422 -1.26427,1.01181 -1.40816,1.77689 -1.40655,2.36965 0.002,0.73535 -0.67949,1.19406 -1.27982,1.34473 -1.06755,0.26794 -0.6418,0.70048 1.37211,1.11815 1.07218,0.22236 2.23106,0.58291 3.7064,1.21062 0.86469,0.36789 2.2642,0.74908 2.63736,1.16916 0.14437,0.16252 0.007,0.32727 -0.30127,0.26883 -1.2617,-0.23883 -2.29004,-1.32965 -2.60476,-0.70794 -0.12424,0.24542 1.61516,1.08554 2.42357,1.48928 1.49824,0.74825 2.69089,2.10756 2.04933,2.30703 -0.17934,-0.004 -1.34134,-0.67115 -2.58227,-1.33983 -1.24092,-0.66868 -1.63237,-1.26268 -2.38097,-1.12515 -0.31149,0.0572 -0.10723,0.51481 0.19623,0.61753 0.42908,0.14524 1.62678,0.70949 2.59159,1.37063 1.38222,0.94717 2.30476,1.58638 2.0868,2.15939 -0.14768,0.38821 -2.31769,-0.42311 -4.98519,-2.09882 -1.42444,-0.89482 -4.90341,-2.08664 -6.96036,-3.04924 -2.897496,-1.13503 -2.31313,-1.94033 -3.332734,-3.71813 -0.339338,-0.59167 0.01837,-2.37298 0.714626,-3.59106 1.452658,-2.54137 3.547388,-3.93764 3.884728,-5.47884 0.228,-3.1333 3.44233,-4.7478 5.2654,-2.60765 0.39019,0.45805 0.38958,0.78482 0.57478,0.87415 0,0 0.19287,0.0565 0.15392,-0.10389 -0.79585,-3.27745 -5.79506,-2.89102 -6.90322,1.3804 -0.23464,0.73074 -1.02243,2.34088 -2.07968,3.32902 -1.524783,1.42508 -1.851394,2.54245 -2.156928,3.64716 -0.736064,2.66137 -3.60667,-0.85001 -4.404476,-4.31708 -0.382394,-1.1077 -1.242648,-3.82687 -1.606213,-6.14398 -0.416847,-2.65669 -0.174713,-5.165 0.280024,-7.27732 0.676256,-3.14131 0.854797,-6.54129 -0.02504,-8.26592 -0.396287,-0.77679 -0.658147,-1.24595 -0.565037,-1.4844 0.108084,-0.2768 0.444712,-0.16743 1.047474,-0.37036 0.358701,-0.27897 -0.439203,-0.17024 -1.074652,-0.22109 -1.489868,-0.11923 -2.543856,-2.17216 -1.542542,-2.44998 0.571081,-0.15845 0.909634,-0.497194 1.418519,-0.394274 0.409875,0.0829 1.229618,0.285304 1.846829,0.319124 0.0794,0.13255 0.248131,0.38866 0.307466,0.50197 0.769882,1.31143 1.089454,1.94397 1.876136,3.85176 0.481548,1.1678 0.575281,1.56023 0.651211,1.59703 0.465686,0.22601 -1.181161,-3.92641 -2.53242,-5.94072 0.0866,-0.007 0.449915,-0.0963 0.628309,-0.1482 0.562207,-0.16352 0.770435,-0.531854 0.833273,-0.683587 -0.09636,-0.07111 -0.53554,0.386195 -1.01933,0.448552 -0.241997,0.03119 -0.574606,0.02561 -0.723369,0.01012 z m 4.523757,-4.204337 c -0.401167,-0.09076 -0.930295,0.0187 -1.442289,0.361735 -0.452501,0.303176 -0.286722,0.455512 0.447001,0.985986 0.992733,0.717735 1.669666,0.627333 1.669666,-0.506946 0,-0.458865 -0.27321,-0.750019 -0.674378,-0.840775 z m -8.409258,0.435361 c 0.01497,0.412427 0.05477,0.649455 0.482611,0.934064 0.310182,0.206338 0.411355,0.611727 0.588594,1.076937 0.268203,0.703968 0.417132,1.50726 -0.399975,1.754425 -1.055324,0.564774 -1.524584,0.171134 -0.895717,-0.330168 0.763543,-0.644499 0.670829,-0.924821 -0.08475,-0.39584 -0.424504,0.297195 -0.615995,0.268488 -0.755862,0.128618 -0.139867,-0.13986 -0.247254,-0.353939 0.198052,-0.716235 0,0 0.676839,-0.313367 0.592338,-0.521182 -0.0845,-0.207816 -0.482292,0.131596 -0.846699,0.21084 -0.364407,0.07924 -0.515607,-0.606114 0.06949,-0.795238 0.466759,0.0065 0.632712,-0.508161 0.343503,-0.519214 -0.09922,-0.0038 -0.301131,0.04916 -0.207548,-0.16137 0.273366,-0.614981 0.91238,-0.763393 0.915929,-0.665637 z m 3.574411,0.642609 c -0.166644,0.0058 -0.120563,0.12164 0.116272,0.21084 0.282678,0.106461 0.891292,0.08895 1.803644,0.353623 1.03457,0.300135 2.095602,1.0019 3.01377,1.662944 1.182299,0.85123 2.461684,2.137954 2.899054,3.145024 0.51817,1.19403 0.49595,1.02445 0.54815,0.88971 0.0507,-0.13069 0.0953,-0.27961 -0.38396,-1.25057 -1.05012,-2.127634 -5.500687,-5.098521 -7.99693,-5.011571 z m 0.454753,1.106909 c -0.238341,0.08838 0.300068,0.175568 1.182357,0.563273 1.472593,0.647105 3.378369,2.565999 4.526339,4.120229 0.519321,0.70309 0.577621,1.26698 0.769991,1.20709 0.28005,-0.0872 -0.16493,-0.88757 -0.826865,-1.74508 -1.01753,-1.31818 -2.743423,-2.933564 -3.866351,-3.564687 -0.790817,-0.444466 -1.547129,-0.669205 -1.785471,-0.580825 z m -1.999742,23.047992 c 0.375628,2.22664 1.455041,6.19599 2.22048,7.91391 0.765439,1.71792 0.638051,3.58003 0.130456,4.31037 -0.507595,0.73034 -1.045001,1.85074 -3.502261,2.00545 -2.457259,0.1547 -3.484601,-0.41042 -5.664348,-0.38082 -2.179748,0.0296 -5.221782,0.22572 -5.615379,-0.031 -0.520757,-1.45526 1.111517,-1.66568 1.352328,-1.75302 0.598149,-0.21695 1.590346,0.23229 3.225478,-0.0398 1.722597,-0.28669 4.380623,-1.22325 4.048433,-1.27372 -0.872363,-0.13252 -4.670599,0.89498 -6.305506,0.5344 -0.589554,-0.13003 0.533422,-0.51481 0.717678,-0.5698 0.341153,-0.1018 0.89606,0.0496 1.369763,0.0687 0.846114,0.0341 1.702468,-0.0356 2.380869,0.004 0.70488,0.0414 0.197678,-0.34293 -0.680969,-0.40748 -0.69774,-0.0513 -0.834261,0.0248 -1.545632,-0.0131 -0.664857,-0.0354 -0.713197,-0.13517 -0.326176,-0.29935 0.563901,-0.23922 3.118148,0.27788 4.023413,0.27762 0.422833,-1.2e-4 1.933022,0.029 2.412086,-0.46672 0.591448,-0.61197 0.359776,-1.85055 0.217128,-4.54993 -0.185937,-3.51856 -0.08152,-4.36257 0.377755,-5.44412 0.159478,-0.37555 0.792442,-2.0905 0.918432,-1.34366 z"
       style="display:inline;opacity:1;fill:#000000"
       id="path1"
       transform="matrix(1.157,0,0,1.157,-17.879493,-18.324446)" /><path
       d="m 97.995457,95.838996 c 0.182241,-6.1e-5 0.329993,0.133009 0.329925,0.29714 6.6e-5,0.16413 -0.147684,0.297199 -0.329925,0.297138 -0.182239,6.1e-5 -0.32999,-0.133008 -0.329923,-0.297138 -6.8e-5,-0.164131 0.147683,-0.297201 0.329923,-0.29714 z"
       style="display:inline;fill:#ffffff;stroke-width:1.05372"
       id="path1-8"
       transform="matrix(1.157,0,0,1.157,-17.879493,-18.324446)" /></g><g
     id="g4"
     transform="matrix(1.8724062,0,0,1.9468438,-128.13674,-151.72974)"
     style="display:inline"><path
       d="m 87.442811,109.39024 c -1.225211,0.2148 -2.217962,0.69932 -3.704331,0.48885 0,0 -1.2395,-0.10232 -1.861244,-0.0365 -0.714883,0.11864 -0.886947,0.50767 -1.066772,0.57986 -1.176081,0.47215 -1.134317,1.27592 -1.578288,1.27912 -1.007578,0.0151 -3.495838,2.31707 -4.346935,3.69129 -0.33045,0.53359 -0.598099,0.97709 -0.365352,0.95498 0.10919,-0.0104 0.261203,-0.31157 0.538892,-0.7509 0.261289,-0.41336 0.89289,-1.2093 1.198053,-1.55579 0.966479,-1.09741 2.441753,-1.91482 2.777371,-1.76954 0.08277,0.0358 -0.0722,0.40097 -0.07958,0.56844 -0.01747,0.39627 0.173191,0.45088 -0.188619,0.83923 -0.80524,0.86433 -2.8991,3.8168 -2.681869,4.22248 0.07244,0.13527 0.41837,-0.84991 1.335605,-2.07387 0.654189,-0.87294 1.563745,-2.03571 1.69508,-1.81116 0.162867,0.27846 0.116815,0.21681 0.238179,0.49407 0.06143,0.14035 0.273999,0.18994 0.193929,0.38034 -0.147272,0.35021 -0.634247,0.91764 -0.963958,1.69099 -0.324108,0.76021 -0.590197,1.60683 -0.697115,2.4288 -0.10692,0.82198 -0.123796,2.12441 0.03486,2.11441 0.158656,-0.01 -0.04197,-0.51402 0.181384,-1.86139 0.223358,-1.34738 0.685007,-2.4111 1.047998,-3.06958 0.362991,-0.65848 0.588875,-1.05322 0.639755,-0.93638 0.05088,0.11684 0.639754,0.40101 0.639754,0.40101 0.157797,0.923 0.442407,2.01034 1.259575,2.15359 0.619238,0.10854 1.305454,1.31767 1.630296,2.76688 0.324847,1.44921 0.407133,3.48837 0.08245,5.05647 -0.262633,1.26841 -0.68414,3.41826 -0.820515,4.91673 -0.153789,1.68982 -0.442678,2.8862 -0.76016,3.14968 -0.888511,0.7374 -1.35519,2.92567 -1.228349,4.4111 0.272827,3.19546 0.315104,6.07119 -0.153844,6.90589 -0.240311,0.42774 -0.55478,0.54117 -1.222631,0.5414 -1.264128,4.4e-4 -3.302512,-0.45387 -5.045034,-0.29536 -0.589675,0.0958 -0.582828,0.53067 -1.091171,0.59646 -1.154677,0.14946 -1.017263,0.6762 -1.457793,0.8245 -1.713102,0.57672 -2.027151,2.08384 -1.892486,3.05362 0.571547,0.55858 2.318793,0.22834 2.913181,0.20937 2.896268,-0.0925 8.1513,0.0368 8.860449,0.13916 2.671463,-0.37076 3.055709,-1.09641 3.949576,-1.53936 0.868711,-0.38264 0.964168,-0.78756 3.202759,0.29712 0.490376,0.23761 0.563885,1.54206 1.195979,2.11035 3.062058,1.65825 3.987208,1.79407 7.684928,3.3802 0.95992,0.41176 2.794942,1.1738 4.449902,1.99826 0.95011,0.47332 2.801,1.34597 3.47022,0.91162 0.442,-0.28689 -0.35494,-1.25304 -0.71972,-1.58417 -0.17465,-0.15853 0.44324,0.0441 0.80679,-0.0568 0.27825,-0.0772 0.35891,-0.53972 0.11247,-0.97916 -0.18746,-0.33425 -0.9499,-1.30778 -2.11142,-1.89523 -0.18481,-0.0935 1.16983,0.12674 0.30947,-1.38739 -0.0806,-0.14185 0.83435,-0.0282 0.7289,0.20877 -0.20994,0.47175 0.24684,0.88688 0.49725,1.01625 0.34188,0.17662 0.79758,0.44322 1.12302,0.51347 0.49398,0.10664 -0.21746,0.48241 0.91098,0.9225 0.52915,0.20637 1.0145,-0.19853 1.19621,0.18566 0.17176,0.36314 0.40859,0.77065 1.2615,0.80885 0.52853,0.0237 0.84057,-0.22439 0.78002,0.14513 -0.13693,0.83566 2.15228,0.69959 2.5499,0.43519 1.68427,-1.11997 2.78256,-2.40178 5.04872,-2.11334 1.07239,0.1365 1.7887,-0.006 3.19273,-0.63464 0.61986,-0.27755 2.1339,-1.2866 2.94988,-2.38333 0.24703,-0.33203 0.21949,-1.78149 0.21109,-2.32148 -0.0213,-1.37025 -0.95816,-2.39509 -1.35734,-4.04289 -0.2821,-1.16448 -1.12336,-2.26283 -1.91716,-3.40704 -0.77212,-1.11294 -1.8169,-2.77004 -1.8169,-2.77004 -0.85643,-1.27965 -1.88932,-1.86829 -3.12466,-2.73406 -0.65395,-0.4583 -1.1314,-1.1378 -2.18041,-1.72413 -0.66219,-0.37012 -1.73396,-0.86578 -3.22573,-0.95698 -3.68407,-0.22523 -3.87346,-1.01863 -5.11962,-2.65066 -0.49125,-0.64337 -2.2041,-2.76776 -4.19684,-4.71351 -3.420282,-3.33961 -3.413902,-4.40534 -4.827832,-8.94114 -0.3282,-1.05285 -0.88241,-2.57509 -2.0065,-3.49274 -1.71556,-1.4005 -2.19417,-3.04654 -4.831661,-3.27829 0,0 -1.032054,-0.24007 -2.257266,-0.0253 z m 1.705642,0.97917 c -0.401167,-0.0908 -0.930295,0.0187 -1.442289,0.36174 -0.452501,0.30317 -0.286722,0.45551 0.447001,0.98598 0.992733,0.71774 1.669666,0.62733 1.669666,-0.50694 0,-0.45887 -0.27321,-0.75002 -0.674378,-0.84078 z m -4.834847,1.07797 c -0.166644,0.006 -0.120563,0.12164 0.116272,0.21084 0.282678,0.10646 0.891292,0.0889 1.803644,0.35362 1.03457,0.30014 2.095602,1.0019 3.01377,1.66295 1.182299,0.85122 2.461686,2.13796 2.899056,3.14503 0.51817,1.19403 0.49595,1.02445 0.54815,0.88971 0.0507,-0.13069 0.0953,-0.27961 -0.38396,-1.25057 -1.050131,-2.12765 -5.500689,-5.09853 -7.996932,-5.01158 z m 0.454753,1.10691 c -0.238341,0.0884 0.300068,0.17557 1.182357,0.56327 1.472593,0.64711 3.378369,2.56601 4.526339,4.12024 0.519309,0.70309 0.352332,1.43805 0.769978,1.20709 0.563295,-0.3115 -0.164928,-0.88757 -0.826852,-1.74508 -1.01753,-1.31818 -2.743423,-2.93357 -3.866351,-3.5647 -0.790817,-0.44446 -1.547129,-0.6692 -1.785471,-0.58082 z"
       style="display:inline;opacity:0.24;fill:#f5d501;fill-opacity:1"
       id="path2"
       transform="matrix(1.157,0,0,1.157,-7.202982,-35.371188)" /><path
       d="m 96.670565,94.656624 c -1.225211,0.2148 -2.217962,0.699324 -3.704331,0.488855 0,0 -1.2344,-0.125193 -1.786466,-0.07386 -1.010762,0.09398 -0.956747,0.558968 -1.14155,0.617249 -1.368155,0.431471 -1.134317,1.275917 -1.578288,1.279117 -1.007578,0.01514 -3.495838,2.317069 -4.346935,3.691285 -0.33045,0.53359 -0.598099,0.97709 -0.365352,0.95498 0.10919,-0.0104 0.261203,-0.31157 0.538892,-0.7509 0.261289,-0.41335 0.89289,-1.209286 1.198053,-1.555786 0.966479,-1.097404 2.441753,-1.914822 2.777371,-1.769539 0.08277,0.03583 -0.0722,0.400976 -0.07958,0.568441 -0.01747,0.396273 0.173191,0.450876 -0.188619,0.839228 -0.80524,0.86434 -2.8991,3.816796 -2.681869,4.222476 0.07244,0.13527 0.41837,-0.84991 1.335605,-2.07387 0.654189,-0.87294 1.563745,-2.035706 1.69508,-1.811156 0.162867,0.27846 0.116815,0.21681 0.238179,0.49408 0.06143,0.14035 0.273999,0.18994 0.193929,0.380326 -0.147272,0.35022 -0.634247,0.91764 -0.963958,1.69099 -0.324108,0.76021 -0.590197,1.60683 -0.697115,2.4288 -0.10692,0.82198 -0.123796,2.12441 0.03486,2.11441 0.158656,-0.01 -0.04197,-0.51402 0.181384,-1.86139 0.223358,-1.34738 0.685007,-2.4111 1.047998,-3.06958 0.362991,-0.65848 0.588875,-1.05322 0.639755,-0.93638 0.05088,0.11684 0.639754,0.40101 0.639754,0.40101 0.157797,0.923 0.442407,2.01034 1.259575,2.15359 0.619238,0.10854 1.305454,1.31767 1.630296,2.76688 0.324847,1.44921 0.407133,3.48837 0.08245,5.05647 -0.262633,1.26841 -0.68414,3.41826 -0.820515,4.91673 -0.153789,1.68982 -0.442678,2.8862 -0.76016,3.14968 -0.888511,0.7374 -1.35519,2.92567 -1.228349,4.4111 0.272827,3.19546 0.315104,6.07119 -0.153844,6.90589 -0.240311,0.42774 -0.55478,0.54117 -1.222631,0.5414 -1.264128,4.4e-4 -3.302512,-0.45387 -5.045034,-0.29536 -0.589675,0.0958 -0.582828,0.53067 -1.091171,0.59646 -1.154677,0.14946 -1.017263,0.6762 -1.457793,0.8245 -1.713102,0.57672 -2.027151,2.08384 -1.892486,3.05362 0.571547,0.55858 1.047787,0.7903 1.628636,0.66273 3.689664,-0.81029 8.264642,-0.15214 10.258336,0.0636 2.671463,-0.37076 3.206832,-1.32309 4.100699,-1.76604 0.868711,-0.38264 0.699703,-0.93868 2.938294,0.146 0.490376,0.23761 0.563885,1.54206 1.195979,2.11035 3.062056,1.65825 3.987206,1.79407 7.684926,3.3802 0.95992,0.41176 2.79494,1.1738 4.4499,1.99826 0.95011,0.47332 2.801,1.34597 3.47022,0.91162 0.442,-0.28689 -0.35494,-1.25304 -0.71972,-1.58417 -0.17465,-0.15853 0.44324,0.0441 0.80679,-0.0568 0.27825,-0.0772 0.35891,-0.53972 0.11247,-0.97916 -0.18746,-0.33425 -0.9499,-1.30778 -2.11142,-1.89523 -0.18481,-0.0935 1.16983,0.12674 0.30947,-1.38739 -0.0806,-0.14185 0.83435,-0.0282 0.7289,0.20877 -0.20994,0.47175 0.24684,0.88688 0.49725,1.01625 0.34188,0.17662 0.79758,0.44322 1.12302,0.51347 0.49398,0.10664 -0.21746,0.48241 0.91098,0.9225 0.52915,0.20637 1.0145,-0.19853 1.19621,0.18566 0.17176,0.36314 0.40859,0.77065 1.2615,0.80885 0.52853,0.0237 0.84057,-0.22439 0.78002,0.14513 -0.13693,0.83566 2.15228,0.69959 2.5499,0.43519 1.68427,-1.11997 2.78256,-2.40178 5.04872,-2.11334 1.07239,0.1365 1.7887,-0.006 3.19273,-0.63464 0.61986,-0.27755 2.1339,-1.2866 2.94988,-2.38333 0.24703,-0.33203 0.21949,-1.78149 0.21109,-2.32148 -0.0213,-1.37025 -0.65397,-2.52545 -1.05315,-4.17325 -0.2821,-1.16448 -1.12336,-2.26283 -1.91716,-3.40704 -0.77212,-1.11294 -1.94727,-2.72659 -1.94727,-2.72659 -0.88815,-1.32704 -1.95409,-1.98829 -3.27658,-2.8929 -0.62785,-0.42947 -1.05286,-1.01998 -2.02849,-1.56529 -0.66219,-0.37012 -1.90778,-0.77887 -3.39955,-0.87007 -3.68407,-0.22523 -3.87346,-1.01863 -5.11962,-2.65066 -0.49125,-0.64337 -2.2041,-2.76776 -4.19684,-4.71351 -3.42028,-3.33961 -3.4139,-4.40534 -4.82783,-8.94114 -0.3282,-1.05285 -0.88241,-2.575085 -2.0065,-3.492732 -1.71556,-1.400498 -2.19417,-3.046546 -4.831659,-3.278292 0,0 -1.032054,-0.240073 -2.257266,-0.02527 z m 1.312342,9.571146 c 0.788293,1.28795 0.873014,1.73603 0.997306,1.77663 0.995672,0.32556 -4.084798,-7.617039 -5.966991,-7.729011 -0.01566,0.162562 -0.01299,0.04969 1.068784,0.937964 1.081776,0.888277 2.655948,2.980327 3.900901,5.014417 z M 93.85245,99.840136 c -0.299516,-0.3889 -0.578946,-0.68467 -0.784449,-0.70281 -0.0096,0.1474 -0.02443,0.17232 0.152876,0.28244 0.10221,0.0657 0.220469,0.22579 0.335897,0.37983 -0.188746,-0.0262 -0.235279,-0.0114 -0.466035,-0.0551 -0.490771,-0.09286 -0.966901,-0.11175 -1.276377,-0.474385 -0.520836,-0.610304 -0.629911,-1.712102 0.01806,-2.261896 0.39727,-0.33708 0.512332,-0.654405 0.383439,-0.644405 -0.153913,0.0119 -0.36449,0.407549 -0.773596,0.439249 -0.46425,0.03597 -1.266789,-0.465996 -1.066725,-0.904294 0.482621,-1.057321 1.059514,-0.602591 3.5511,-0.314826 1.13914,0.131565 1.653787,-0.174971 2.507914,-0.34341 1.481244,-0.292109 2.70974,-0.09418 3.471772,0.184181 0.952114,0.347794 1.772934,1.636486 2.538744,2.227114 1.24604,0.960989 1.75032,1.481482 2.31557,3.121456 0.36721,1.10735 0.5018,2.83861 1.18298,4.40064 0.86975,1.99443 3.72421,4.99339 5.27627,6.60929 1.81407,1.88868 2.73525,2.95889 2.95443,4.21718 0.0791,0.45433 0.31216,1.3827 0.31906,1.93316 0,0 -0.0118,1.04603 -0.1152,1.81646 -0.10338,0.77043 0.25868,0.37929 0.2893,0.12417 0.0306,-0.25512 0.22646,-0.96672 0.22656,-1.49699 1.6e-4,-0.67718 -0.0288,-1.15815 0.41925,-1.2972 0.23791,-0.0738 0.87311,0.52524 1.32075,0.75673 0.59049,0.30534 1.4877,0.37633 2.41897,0.38058 0.91227,0.004 2.26622,0.15956 3.37682,0.70855 0.97563,0.48228 1.74457,1.35147 2.1203,1.54915 1.28929,0.67832 3.23684,2.26294 4.03028,3.75622 0.24865,0.46796 1.01761,1.89735 1.60157,2.6058 2.11314,2.56361 3.31776,8.06323 2.5865,8.76815 -0.91562,0.88264 -1.64688,1.23397 -2.60209,1.92177 -0.87344,0.62892 -1.55212,0.97842 -2.93056,0.62206 -1.1076,-0.28633 -1.79212,0.0662 -1.9692,0.20876 -0.40349,0.32491 -2.26682,1.18754 -3.18548,1.9177 -0.75301,0.5985 -1.57539,0.13864 -1.80812,0.13864 -0.603,0 -0.0804,-0.58223 0.738,-1.13245 1.26333,-0.84933 0.43082,-1.12366 -0.90486,-0.29817 -2.05546,1.27034 -2.45295,0.56479 -0.42271,-0.75035 0.6767,-0.43835 1.0899,-0.78396 1.0919,-1.18798 0.002,-0.40488 -1.53055,0.46328 -2.64247,1.25263 -1.64465,1.16754 -2.25499,0.36138 -1.88666,-0.23459 0.11981,-0.19386 1.20918,-0.66101 2.21648,-1.12741 1.37434,-0.63634 1.41872,-0.6759 0.97473,-0.8549 -0.32843,-0.1324 -1.13036,0.18727 -2.05074,0.59443 -0.69392,0.30695 -1.56851,0.78116 -2.18466,0.89147 -0.55176,0.0988 -0.84013,-0.12576 -0.84902,-0.33979 -0.0168,-0.40563 0.017,-0.34563 1.04392,-0.82531 0.91747,-0.42856 1.98654,-0.71217 1.99054,-0.93394 0.001,-0.0695 0.20304,-0.24522 -0.45939,-0.12331 -1.02199,0.18808 -2.64741,0.78691 -2.90537,0.62141 -0.25702,-0.16489 -0.25291,-0.76181 0.30225,-0.82779 2.81972,-0.33511 5.06347,-1.57027 6.02205,-1.20843 0.27897,0.10531 0.94591,0.49979 1.63801,0.48712 1.14729,-0.021 1.86141,-0.22407 2.59723,-0.45961 1.49071,-0.63342 2.84093,-0.53458 3.9268,-0.43558 1.16826,0.10651 1.12715,-0.047 0.89904,-0.2312 -0.47708,-0.38522 -1.64874,-0.421 -2.86286,-0.36165 -0.75525,0.0369 -1.59597,0.24696 -2.19674,0.41934 -2.17985,0.62547 -3.64409,-0.0609 -5.38315,0.004 -0.97889,0.0364 -2.32917,0.6908 -3.79738,0.68336 -0.59591,-0.003 -1.53203,-0.22319 -2.09894,-0.21514 -1.04848,0.0149 -1.94852,0.28243 -2.16455,0.38425 -1.10375,0.52027 -2.66892,0.51669 -3.29171,-0.62349 -0.23214,-0.42499 -0.24336,-1.3455 0.13535,-1.93004 0.33343,-0.51466 0.75409,-0.83854 1.18686,-1.52408 1.03731,-1.64319 0.84503,-2.89912 0.84056,-3.89121 -0.002,-0.47115 -0.43993,-0.0884 -0.36516,0.3958 0.29459,1.90771 -0.54678,2.15158 -1.63718,3.3422 -1.26427,1.01181 -1.40816,1.77689 -1.40655,2.36965 0.002,0.73535 -0.67949,1.19406 -1.27982,1.34473 -1.06755,0.26794 -0.6418,0.70048 1.37211,1.11815 1.07218,0.22236 2.23106,0.58291 3.7064,1.21062 0.86469,0.36789 2.2642,0.74908 2.63736,1.16916 0.14437,0.16252 0.007,0.32727 -0.30127,0.26883 -1.2617,-0.23883 -2.29004,-1.32965 -2.60476,-0.70794 -0.12424,0.24542 1.61516,1.08554 2.42357,1.48928 1.49824,0.74825 2.69089,2.10756 2.04933,2.30703 -0.17934,-0.004 -1.34134,-0.67115 -2.58227,-1.33983 -1.24092,-0.66868 -1.63237,-1.26268 -2.38097,-1.12515 -0.31149,0.0572 -0.10723,0.51481 0.19623,0.61753 0.42908,0.14524 1.62678,0.70949 2.59159,1.37063 1.38222,0.94717 2.30476,1.58638 2.0868,2.15939 -0.14768,0.38821 -2.31769,-0.42311 -4.98519,-2.09882 -1.42444,-0.89482 -4.90341,-2.08664 -6.96036,-3.04924 -2.897496,-1.13503 -2.31313,-1.94033 -3.332734,-3.71813 -0.339338,-0.59167 0.01837,-2.37298 0.714626,-3.59106 1.452658,-2.54137 3.547388,-3.93764 3.884728,-5.47884 0.228,-3.1333 3.44233,-4.7478 5.2654,-2.60765 0.39019,0.45805 0.38958,0.78482 0.57478,0.87415 0,0 0.19287,0.0565 0.15392,-0.10389 -0.79585,-3.27745 -5.79506,-2.89102 -6.90322,1.3804 -0.23464,0.73074 -1.02243,2.34088 -2.07968,3.32902 -1.524783,1.42508 -1.851394,2.54245 -2.156928,3.64716 -0.736064,2.66137 -3.60667,-0.85001 -4.404476,-4.31708 -0.382394,-1.1077 -1.242648,-3.82687 -1.606213,-6.14398 -0.416847,-2.65669 -0.174713,-5.165 0.280024,-7.27732 0.676256,-3.14131 0.854797,-6.54129 -0.02504,-8.26592 -0.396287,-0.77679 -0.658147,-1.24595 -0.565037,-1.4844 0.108084,-0.2768 0.444712,-0.16743 1.047474,-0.37036 0.358701,-0.27897 -0.439203,-0.17024 -1.074652,-0.22109 -1.489868,-0.11923 -2.543856,-2.17216 -1.542542,-2.44998 0.571081,-0.15845 0.909634,-0.497194 1.418519,-0.394274 0.409875,0.0829 1.229618,0.285304 1.846829,0.319124 0.0794,0.13255 0.248131,0.38866 0.307466,0.50197 0.769882,1.31143 1.089454,1.94397 1.876136,3.85176 0.481548,1.1678 0.575281,1.56023 0.651211,1.59703 0.465686,0.22601 -1.181161,-3.92641 -2.53242,-5.94072 0.0866,-0.007 0.449915,-0.0963 0.628309,-0.1482 0.562207,-0.16352 0.770435,-0.531854 0.833273,-0.683587 -0.09636,-0.07111 -0.53554,0.386195 -1.01933,0.448552 -0.241997,0.03119 -0.574606,0.02561 -0.723369,0.01012 z m 4.523757,-4.204337 c -0.401167,-0.09076 -0.930295,0.0187 -1.442289,0.361735 -0.452501,0.303176 -0.286722,0.455512 0.447001,0.985986 0.992733,0.717735 1.669666,0.627333 1.669666,-0.506946 0,-0.458865 -0.27321,-0.750019 -0.674378,-0.840775 z m -8.409258,0.435361 c 0.01497,0.412427 0.05477,0.649455 0.482611,0.934064 0.310182,0.206338 0.411355,0.611727 0.588594,1.076937 0.268203,0.703968 0.417132,1.50726 -0.399975,1.754425 -1.055324,0.564774 -1.524584,0.171134 -0.895717,-0.330168 0.763543,-0.644499 0.670829,-0.924821 -0.08475,-0.39584 -0.424504,0.297195 -0.615995,0.268488 -0.755862,0.128618 -0.139867,-0.13986 -0.247254,-0.353939 0.198052,-0.716235 0,0 0.676839,-0.313367 0.592338,-0.521182 -0.0845,-0.207816 -0.482292,0.131596 -0.846699,0.21084 -0.364407,0.07924 -0.515607,-0.606114 0.06949,-0.795238 0.466759,0.0065 0.632712,-0.508161 0.343503,-0.519214 -0.09922,-0.0038 -0.301131,0.04916 -0.207548,-0.16137 0.273366,-0.614981 0.91238,-0.763393 0.915929,-0.665637 z m 3.574411,0.642609 c -0.166644,0.0058 -0.120563,0.12164 0.116272,0.21084 0.282678,0.106461 0.891292,0.08895 1.803644,0.353623 1.03457,0.300135 2.095602,1.0019 3.01377,1.662944 1.182299,0.85123 2.461684,2.137954 2.899054,3.145024 0.51817,1.19403 0.49595,1.02445 0.54815,0.88971 0.0507,-0.13069 0.0953,-0.27961 -0.38396,-1.25057 -1.05012,-2.127634 -5.500687,-5.098521 -7.99693,-5.011571 z m 0.454753,1.106909 c -0.238341,0.08838 0.300068,0.175568 1.182357,0.563273 1.472593,0.647105 3.378369,2.565999 4.526339,4.120229 0.519321,0.70309 0.577621,1.26698 0.769991,1.20709 0.28005,-0.0872 -0.16493,-0.88757 -0.826865,-1.74508 -1.01753,-1.31818 -2.743423,-2.933564 -3.866351,-3.564687 -0.790817,-0.444466 -1.547129,-0.669205 -1.785471,-0.580825 z m -1.999742,23.047992 c 0.375628,2.22664 1.455041,6.19599 2.22048,7.91391 0.765439,1.71792 0.638051,3.58003 0.130456,4.31037 -0.507595,0.73034 -1.045001,1.85074 -3.502261,2.00545 -2.457259,0.1547 -3.484601,-0.41042 -5.664348,-0.38082 -2.179748,0.0296 -5.221782,0.22572 -5.615379,-0.031 -0.520757,-1.45526 1.111517,-1.66568 1.352328,-1.75302 0.598149,-0.21695 1.590346,0.23229 3.225478,-0.0398 1.722597,-0.28669 4.380623,-1.22325 4.048433,-1.27372 -0.872363,-0.13252 -4.670599,0.89498 -6.305506,0.5344 -0.589554,-0.13003 0.533422,-0.51481 0.717678,-0.5698 0.341153,-0.1018 0.89606,0.0496 1.369763,0.0687 0.846114,0.0341 1.702468,-0.0356 2.380869,0.004 0.70488,0.0414 0.197678,-0.34293 -0.680969,-0.40748 -0.69774,-0.0513 -0.834261,0.0248 -1.545632,-0.0131 -0.664857,-0.0354 -0.713197,-0.13517 -0.326176,-0.29935 0.563901,-0.23922 3.118148,0.27788 4.023413,0.27762 0.422833,-1.2e-4 1.933022,0.029 2.412086,-0.46672 0.591448,-0.61197 0.359776,-1.85055 0.217128,-4.54993 -0.185937,-3.51856 -0.08152,-4.36257 0.377755,-5.44412 0.159478,-0.37555 0.792442,-2.0905 0.918432,-1.34366 z"
       style="display:inline;opacity:0.33;fill:#000000"
       id="path3"
       transform="matrix(1.157,0,0,1.157,-17.879493,-18.324446)" /><path
       d="m 97.995457,95.838996 c 0.182241,-6.1e-5 0.329993,0.133009 0.329925,0.29714 6.6e-5,0.16413 -0.147684,0.297199 -0.329925,0.297138 -0.182239,6.1e-5 -0.32999,-0.133008 -0.329923,-0.297138 -6.8e-5,-0.164131 0.147683,-0.297201 0.329923,-0.29714 z"
       style="display:inline;opacity:0.43;fill:#ffffff;stroke-width:1.05372"
       id="path4"
       transform="matrix(1.157,0,0,1.157,-17.879493,-18.324446)" /></g><g
     id="g6"><path
       style="font-weight:bold;font-size:115.711px;line-height:1.25;font-family:'Ubuntu Mono';-inkscape-font-specification:'Ubuntu Mono';display:none;fill:#e95420;stroke-width:1.006"
       d="m 51.129595,78.499061 q 0,-7.289793 -2.892775,-11.918233 -2.892775,-4.74415 -8.794036,-4.74415 -1.619954,0 -3.47133,0.231422 -1.851376,0.115711 -3.124197,0.231422 v 29.853437 q 1.388532,0.925688 3.702752,1.504243 2.31422,0.578555 4.62844,0.578555 5.091284,0 7.521215,-4.049885 2.429931,-4.165596 2.429931,-11.686811 z M 65.59347,78.036217 q 0,6.248394 -1.388532,11.5711 -1.388532,5.206995 -4.049885,9.025458 -2.661353,3.702755 -6.711238,5.785555 -4.049885,2.08279 -9.372591,2.08279 -5.438417,0 -11.223967,-2.66135 v 20.48085 H 18.614804 V 52.579798 q 3.934174,-1.272821 9.604013,-2.082798 5.78555,-0.809977 11.339678,-0.809977 12.612499,0 19.323737,7.636926 6.711238,7.636926 6.711238,20.712268 z M 85.727183,62.646655 H 73.346106 V 50.844133 H 85.727183 V 37.190235 l 14.232453,-2.31422 V 50.844133 H 122.7547 V 62.646655 H 99.959636 v 21.985089 q 0,3.008486 0.578554,4.859862 0.57856,1.851376 1.61996,2.892775 1.04139,1.041399 2.54564,1.388532 1.50424,0.347133 3.35562,0.347133 1.96708,0 3.58704,-0.115711 1.73566,-0.115711 3.2399,-0.347133 1.61996,-0.347133 3.23991,-0.925688 1.73567,-0.578555 3.70275,-1.504243 l 1.96709,12.265369 q -3.93417,1.61995 -8.56261,2.31422 -4.51273,0.69426 -8.79404,0.69426 -4.97557,0 -8.794034,-0.80997 -3.818463,-0.80998 -6.479816,-3.1242 -2.661353,-2.31422 -4.049885,-6.479817 -1.388532,-4.281307 -1.388532,-11.108256 z"
       id="text2"
       aria-label="pt" /><path
       style="font-weight:bold;font-size:115.711px;line-height:1.25;font-family:'Ubuntu Mono';-inkscape-font-specification:'Ubuntu Mono';display:none;fill:#e95420;stroke-width:1.07103"
       d="m 59.466461,71.886127 q -1.478285,-0.369571 -3.572521,-0.739142 -1.971047,-0.369571 -4.065283,-0.615952 -2.094236,-0.369571 -4.065282,-0.492762 -1.971046,-0.12319 -3.32614,-0.12319 -3.20295,0 -6.28271,0.369571 -3.07976,0.246381 -6.28271,1.108713 V 114.38681 H 16.596207 V 60.306231 q 6.036329,-2.217427 12.319039,-3.572522 6.4059,-1.355094 14.906037,-1.355094 1.231904,0 3.449331,0.12319 2.340617,0.123191 4.927614,0.492762 2.586998,0.246381 5.173996,0.739142 2.710189,0.369571 4.804425,1.108714 z m 61.718379,40.529633 q -4.18847,1.10871 -10.2248,2.21743 -5.91314,1.10871 -12.934988,1.10871 -7.145042,0 -11.703086,-1.97104 -4.558045,-1.97105 -7.268233,-5.54357 -2.586999,-3.69571 -3.572522,-8.623326 Q 74.495688,94.676349 74.495688,88.76321 V 56.487329 h 15.152418 v 30.304835 q 0,8.007375 1.847856,11.949468 1.971046,3.818898 7.514613,3.818898 3.449325,0 6.898665,-0.61595 V 56.487329 h 15.2756 z"
       id="text1"
       aria-label="ru" /><path
       style="font-weight:bold;font-size:115.711px;line-height:1.25;font-family:'Ubuntu Mono';-inkscape-font-specification:'Ubuntu Mono';display:none;fill:#e95420;stroke-width:1.006"
       d="m 57.972063,69.724784 q -1.619954,1.851376 -4.62844,5.554128 -3.008485,3.587041 -6.595526,8.09977 -3.47133,4.512729 -7.058371,9.488302 -3.47133,4.859861 -6.248394,9.025456 h 25.687841 v 11.80252 H 16.431815 v -8.67832 q 2.661353,-4.39702 5.78555,-9.02546 3.124197,-4.628439 6.248394,-9.025457 3.124197,-4.512729 6.132683,-8.562614 3.008486,-4.049885 5.438417,-7.289793 H 17.588925 V 59.310794 H 57.972063 Z M 73.82447,113.69496 V 35.821461 L 88.056923,33.39153 v 26.382108 q 1.735665,-0.578555 4.165596,-1.041399 2.429931,-0.578555 4.281307,-0.578555 6.016974,0 10.066854,1.851376 4.04989,1.735665 6.47982,5.091284 2.42993,3.239908 3.47133,7.868348 1.0414,4.512729 1.0414,10.066857 V 113.69496 H 103.33077 V 84.882925 q 0,-7.636926 -1.73566,-10.992545 -1.73567,-3.355619 -6.595527,-3.355619 -1.967087,0 -3.934174,0.462844 -1.851376,0.462844 -3.008486,0.809977 v 41.887378 z"
       id="text3"
       aria-label="zh" /><path
       style="font-weight:bold;font-size:115.711px;line-height:1.25;font-family:'Ubuntu Mono';-inkscape-font-specification:'Ubuntu Mono';display:none;fill:#e95420;stroke-width:1.006"
       d="M 19.14397,124.01371 V 46.140208 l 14.232453,-2.429931 v 26.382108 q 1.735665,-0.578555 4.165596,-1.041399 2.429931,-0.578555 4.281307,-0.578555 6.016972,0 10.066857,1.851376 4.049885,1.735665 6.479816,5.091284 2.429931,3.239908 3.47133,7.868348 1.041399,4.512728 1.041399,10.066856 V 124.01371 H 48.650275 V 95.201671 q 0,-7.636926 -1.735665,-10.992544 -1.735665,-3.355619 -6.595527,-3.355619 -1.967087,0 -3.934174,0.462844 -1.851376,0.462844 -3.008486,0.809977 V 124.01371 Z M 102.5716,54.008556 q 0,4.165596 -2.661353,6.595527 -2.661353,2.429931 -6.364105,2.429931 -3.702752,0 -6.364104,-2.429931 -2.545642,-2.429931 -2.545642,-6.595527 0,-4.281307 2.545642,-6.711238 2.661352,-2.429931 6.364104,-2.429931 3.702752,0 6.364105,2.429931 2.661353,2.429931 2.661353,6.711238 z m 21.17511,67.690934 q -4.39701,2.0828 -8.33119,2.77706 -3.81846,0.80998 -7.05837,0.80998 -5.55413,0 -9.372591,-1.61995 -3.702752,-1.61996 -6.016972,-4.62844 -2.198509,-3.1242 -3.124197,-7.52122 -0.925688,-4.39702 -0.925688,-10.06685 V 81.432063 H 73.875273 V 69.629541 h 29.274887 v 33.671899 q 0,4.85986 1.73566,7.28979 1.85138,2.31422 6.01697,2.31422 1.96709,0 4.74415,-0.46284 2.77707,-0.57855 6.2484,-2.19851 z"
       id="text4"
       aria-label="hi" /><path
       style="font-weight:bold;font-size:115.711px;line-height:1.25;font-family:'Ubuntu Mono';-inkscape-font-specification:'Ubuntu Mono';display:inline;fill:#e95420;stroke-width:1.05145"
       d="m 12.266218,89.370488 q 0,-7.498204 2.297837,-13.182326 2.297836,-5.684122 6.046938,-9.433224 3.749102,-3.870041 8.586653,-5.805061 4.837551,-1.935021 9.916979,-1.935021 12.577632,0 19.108325,7.498204 6.530694,7.377265 6.530694,21.64804 0,1.451266 -0.120939,3.02347 0,1.572204 -0.120939,2.539714 H 27.625442 q 0,5.563183 4.595673,8.828526 4.595674,3.14441 11.851999,3.14441 4.474735,0 8.465714,-0.96751 4.111918,-0.96751 6.89351,-1.93501 l 2.055959,12.69856 q -3.870041,1.33033 -8.223836,2.1769 -4.353796,0.96752 -9.796041,0.96752 -7.256325,0 -13.061386,-1.81409 -5.684122,-1.93502 -9.796041,-5.56318 -3.990979,-3.7491 -6.167877,-9.19135 -2.176898,-5.442246 -2.176898,-12.698572 z m 38.095712,-5.926 q 0,-2.297836 -0.604694,-4.353796 -0.604694,-2.176898 -1.93502,-3.87004 -1.330327,-1.693143 -3.386286,-2.660653 -2.055959,-1.088449 -5.079427,-1.088449 -2.902531,0 -5.079429,0.96751 -2.055959,0.96751 -3.507224,2.660653 -1.330326,1.693143 -2.176898,3.870041 -0.725632,2.176898 -0.96751,4.474734 z m 46.198611,22.615552 q 5.442249,0 8.344769,-0.72563 2.90253,-0.84657 2.90253,-3.26535 0,-1.57221 -0.9675,-2.660653 -0.84658,-1.08845 -2.53973,-1.814083 -1.5722,-0.846571 -3.74909,-1.572204 -2.055959,-0.725632 -4.353795,-1.451265 -3.265347,-0.96751 -6.651633,-2.176898 -3.386285,-1.330326 -6.167877,-3.265347 -2.781592,-1.93502 -4.595673,-4.83755 -1.814082,-3.02347 -1.814082,-7.498204 0,-3.628163 1.330326,-6.772572 1.451266,-3.265346 4.353796,-5.684122 3.02347,-2.539714 7.619143,-3.870041 4.595673,-1.451265 11.005425,-1.451265 5.56319,0 10.27979,0.846572 4.83755,0.846571 8.34478,2.418775 l -2.29784,12.577632 q -2.05595,-0.604694 -6.40975,-1.93502 -4.35379,-1.451265 -9.79604,-1.451265 -5.68412,0 -7.74008,1.451265 -1.93502,1.330326 -1.93502,2.902531 0,1.330326 0.846572,2.418775 0.96751,0.96751 2.418775,1.814082 1.572204,0.846571 3.507224,1.693142 2.055959,0.725633 4.353789,1.451266 3.26535,1.088449 6.77258,2.418775 3.50722,1.330327 6.28881,3.386286 2.90253,1.93502 4.71661,5.079428 1.81408,3.023469 1.81408,7.49821 0,3.50723 -1.33033,6.65163 -1.33032,3.14441 -4.47472,5.44225 -3.02348,2.29783 -7.98197,3.62816 -4.95848,1.33033 -12.214808,1.33033 -7.377265,0 -12.577632,-1.69315 -5.200367,-1.69314 -8.344775,-3.02347 l 2.297836,-12.45669 q 4.232857,1.69314 8.949469,3.1444 4.837551,1.45127 9.796041,1.45127 z"
       id="text5"
       aria-label="es" /><path
       style="font-weight:bold;font-size:115.711px;line-height:1.25;font-family:'Ubuntu Mono';-inkscape-font-specification:'Ubuntu Mono';display:none;fill:#e95420;stroke-width:1.006"
       d="M 27.673423,124.0137 V 81.432055 H 15.75519 V 69.629533 h 11.918233 v -3.124197 q 0,-6.595527 1.851376,-10.876834 1.967087,-4.397018 5.206995,-6.94266 3.239908,-2.661353 7.405504,-3.702752 4.165595,-1.15711 8.562613,-1.15711 4.512729,0 9.25688,0.809977 4.744151,0.809977 8.562614,2.661353 l -2.429931,11.5711 q -2.661353,-0.925688 -6.711238,-1.851376 -3.934174,-1.041399 -7.521215,-1.041399 -1.967087,0 -3.818463,0.347133 -1.735665,0.347133 -3.124197,1.504243 -1.272821,1.15711 -2.082798,3.355619 -0.809976,2.082798 -0.809976,5.554128 v 2.892775 H 64.353809 V 81.432055 H 42.021587 V 124.0137 Z M 120.0108,84.093408 q -1.38853,-0.347133 -3.35562,-0.694266 -1.85138,-0.347133 -3.81846,-0.578555 -1.96709,-0.347133 -3.81847,-0.462844 -1.85137,-0.115711 -3.12419,-0.115711 -3.00849,0 -5.901263,0.347133 -2.892775,0.231422 -5.901261,1.041399 V 124.0137 H 79.743372 V 73.216574 q 5.669839,-2.082798 11.5711,-3.355619 6.016972,-1.272821 14.001028,-1.272821 1.15711,0 3.23991,0.115711 2.19851,0.115711 4.62844,0.462844 2.42993,0.231422 4.85986,0.694266 2.54564,0.347133 4.51273,1.041399 z"
       id="text6"
       aria-label="fr" /><text
       xml:space="preserve"
       style="font-size:115.711px;line-height:1.25;display:none;opacity:1;fill:#e95420;fill-opacity:1;stroke:none;stroke-width:1.006;stroke-dasharray:none;stroke-opacity:1"
       x="11.325011"
       y="105.2283"
       id="text7"><tspan
         id="tspan7"
         style="font-style:normal;font-variant:normal;font-weight:bold;font-stretch:normal;font-size:115.711px;font-family:'Ubuntu Mono';-inkscape-font-specification:'Ubuntu Mono';display:inline;fill:#e95420;fill-opacity:1;stroke:none;stroke-width:1.006;stroke-dasharray:none;stroke-opacity:1"
         x="0"
         y="0">pt</tspan></text></g></svg>
